<svg width="132" height="137" viewBox="0 0 132 137" fill="none" xmlns="http://www.w3.org/2000/svg">
<path d="M63.0547 1.71808C61.8703 2.38156 61.1167 4.15085 61.1167 6.0307C61.1167 7.91057 60.686 9.34811 60.04 9.34811C59.5017 9.34811 51.7497 12.7761 42.8133 16.9781C33.877 21.1802 26.3403 24.1659 26.0173 23.613C25.156 22.1754 20.8493 22.3966 19.342 23.9447C17.8347 25.4928 17.6193 29.4737 19.019 30.9112C19.8803 31.9065 15.6813 44.6232 9.43667 59.8833C8.89833 61.3208 7.49867 62.4266 6.422 62.4266C4.05333 62.4266 0.823334 65.744 0.823334 68.0662C0.823334 71.0519 4.161 74.5904 6.85267 74.5904C8.25233 74.5904 9.43667 75.2539 9.43667 75.9174C9.43667 76.6914 11.8053 83.4368 14.7123 90.9563C17.6193 98.3652 19.5573 104.779 19.019 105.111C17.6193 105.995 17.8347 111.524 19.342 113.072C20.957 114.731 24.7253 114.842 26.2327 113.293C26.9863 112.519 32.0467 114.399 41.8443 119.154C49.8117 123.025 57.3483 126.563 58.748 127.005C60.2553 127.558 61.1167 128.664 61.1167 130.323C61.1167 131.76 62.0857 133.751 63.3777 134.967C65.4233 136.847 65.854 136.847 68.438 135.299C70.1607 134.304 71.4527 132.534 71.668 130.876C71.991 128.443 73.283 127.448 80.2813 124.352C84.8033 122.361 92.34 118.712 96.862 116.39C103.968 112.851 105.583 112.409 107.306 113.515C111.935 116.5 117.642 109.866 113.766 105.885C113.012 105.111 113.981 101.461 116.888 93.8314C119.257 87.8601 121.733 81.1147 122.379 78.9031C123.348 75.6962 124.317 74.701 126.793 74.1481C131.315 73.2635 133.146 69.0614 130.669 65.1911C129.7 63.643 127.87 62.4266 126.47 62.4266C124.425 62.4266 123.348 60.4362 118.503 47.1665C114.842 37.4355 113.227 31.6853 113.873 31.0218C115.488 29.3631 115.165 25.2717 113.335 23.7235C112.366 22.8389 110.32 22.6177 108.059 23.0601C105.152 23.613 101.707 22.5072 88.2487 16.3147C74.7903 10.1222 71.991 8.35289 71.8833 6.47302C71.8833 3.81911 68.761 0.501694 66.3923 0.501694C65.531 0.501694 64.0237 1.0546 63.0547 1.71808ZM69.73 4.81432C71.345 8.02115 69.9453 10.4539 66.5 10.4539C64.3467 10.4539 63.1623 9.79043 62.7317 8.24231C61.2243 3.48737 67.469 0.612274 69.73 4.81432ZM68.5457 12.002C71.5603 10.7857 71.8833 11.0068 78.451 18.9686C82.2193 23.5024 85.4493 27.5938 85.6647 28.0362C85.7723 28.4785 82.327 29.3631 77.805 29.916C71.1297 30.8007 69.5147 30.6901 68.115 29.3631C66.7153 27.815 66.2847 27.815 64.885 29.3631C63.4853 30.6901 61.8703 30.8007 55.195 29.916C50.7807 29.3631 47.12 28.4785 47.12 27.9256C47.12 27.3727 49.2733 24.6082 51.8573 21.7331C54.4413 18.858 57.6713 15.2089 58.9633 13.5502C60.9013 10.8962 61.5473 10.6751 63.27 11.8915C64.885 12.7761 66.177 12.8867 68.5457 12.002ZM57.8867 12.1126C57.8867 13.8819 45.2897 26.3775 43.7823 26.1563C42.7057 25.9351 41.629 26.3775 41.1983 27.0409C40.4447 28.2573 34.0923 28.3679 29.8933 27.1515C27.417 26.3775 27.8477 26.0457 34.2 23.1706C38.076 21.2908 44.859 18.0839 49.2733 15.7618C58.5327 11.1174 57.8867 11.4491 57.8867 12.1126ZM97.0773 22.6177C97.2927 22.6177 99.3383 23.3918 101.599 24.4976C105.691 26.2669 105.691 26.2669 103.107 27.1515C99.0153 28.3679 92.5553 28.2573 91.8017 27.0409C91.371 26.3775 90.2943 25.9351 89.3253 26.1563C87.7103 26.3775 75.1133 14.1031 75.1133 12.3338C75.1133 12.002 79.9583 14.2136 85.88 17.1993C91.9093 20.185 96.862 22.6177 97.0773 22.6177ZM26.6633 27.3727C26.6633 29.2525 24.51 31.4641 22.6797 31.4641C21.926 31.4641 20.8493 30.4689 20.2033 29.3631C18.696 26.2669 21.603 23.2812 24.6177 24.8293C25.6943 25.4928 26.6633 26.5986 26.6633 27.3727ZM112.581 28.5891C112.151 31.4641 108.598 31.6853 106.983 28.9208C106.014 27.2621 106.229 26.5986 107.844 25.3822C110.428 23.3918 113.012 25.1611 112.581 28.5891ZM40.337 30.8007C40.7677 31.1324 37.9683 34.7816 34.2 38.6519C30.4317 42.5222 27.6323 46.1713 28.063 46.5031C28.4937 46.9454 31.616 44.2915 34.9537 40.5317C38.2913 36.772 41.7367 33.6758 42.598 33.6758C43.567 33.6758 45.0743 33.0123 45.9357 32.1276C48.1967 30.1372 59.6093 31.4641 63.593 34.2287C65.208 35.2239 67.2537 35.7768 68.438 35.445C71.668 34.3392 88.464 43.0751 89.11 46.1713C89.433 47.4983 90.725 49.0464 92.017 49.5993C94.601 50.8157 99.5537 63.4218 99.446 68.5085C99.2307 74.4798 94.3857 85.759 91.5863 86.8648C89.9713 87.4177 89.11 88.7447 89.11 90.4034C89.11 92.615 87.7103 93.7208 79.743 97.37C74.575 99.6921 68.5457 101.683 66.5 101.683C64.3467 101.683 58.6403 99.8027 53.3647 97.37C45.182 93.6102 43.89 92.615 43.89 90.2928C43.89 88.5235 43.1363 87.4177 41.629 87.086C38.076 86.0908 33.3387 74.1481 33.6617 67.2921C34.0923 60.215 37.6453 51.9215 40.5523 51.0368C42.1673 50.5945 42.8133 49.5993 42.8133 47.2771C42.8133 44.402 43.567 43.7385 52.7187 39.4259C58.102 36.8826 62.301 34.4498 61.978 34.1181C61.332 33.4546 39.2603 43.0751 36.5687 45.1761C35.7073 45.8396 35.3843 47.2771 35.815 48.8252C36.3533 51.258 32.262 64.6382 30.97 64.6382C30.1087 64.6382 27.74 52.3638 28.386 51.258C28.6013 50.7051 28.1707 48.9358 27.417 47.2771C26.5557 45.6184 25.5867 41.8587 25.156 38.9836C24.0793 31.5747 26.3403 29.142 33.877 29.5843C36.9993 29.8054 39.9063 30.3583 40.337 30.8007ZM106.337 31.4641C108.382 33.5652 108.49 34.3392 107.413 39.9788C106.875 43.4068 106.229 46.2819 106.121 46.3925C105.368 46.9454 92.2323 31.4641 92.663 30.6901C92.986 30.2478 95.6777 29.6949 98.6923 29.4737C102.999 29.2525 104.614 29.6949 106.337 31.4641ZM86.9567 32.017C87.7103 32.9017 89.11 33.6758 90.1867 33.6758C92.986 33.6758 104.722 47.9406 104.722 51.3686C104.614 55.5706 102.999 63.4218 102.138 63.9747C100.953 64.7488 95.4623 49.5993 96.216 47.6089C97.0773 45.3973 94.8163 42.5222 92.34 42.5222C91.2633 42.5222 85.9877 40.3106 80.389 37.6566C69.5147 32.2382 69.407 32.5699 81.035 31.1324C82.8653 30.9112 84.588 30.5795 84.911 30.4689C85.3417 30.4689 86.203 31.1324 86.9567 32.017ZM23.864 40.974C24.4023 45.5078 24.187 46.8348 22.895 47.3877C22.0337 47.7194 21.28 48.7147 21.28 49.5993C21.28 51.258 12.559 60.4362 11.6977 59.6621C11.4823 59.4409 13.6357 53.2484 16.5427 45.8396C19.5573 38.099 22.0337 33.1228 22.4643 33.8969C22.7873 34.671 23.4333 37.8778 23.864 40.974ZM115.811 44.7338C118.18 51.1474 120.441 57.3399 120.979 58.5563C121.518 60.1044 120.333 59.3304 116.78 56.3447C114.089 53.9119 111.828 51.0368 111.72 49.931C111.72 48.8252 110.966 47.7194 109.997 47.2771C108.705 46.8348 108.49 45.5078 109.136 40.4211C109.782 34.5604 110.428 32.017 111.182 32.7911C111.397 33.0123 113.443 38.3201 115.811 44.7338ZM41.0907 48.1618C40.2293 49.7099 37.43 49.3781 37.43 47.7194C37.43 46.8348 37.753 45.8396 38.1837 45.5078C39.1527 44.5126 41.8443 46.9454 41.0907 48.1618ZM27.417 58.888C29.355 68.6191 27.5247 82.5522 24.187 83.2157C21.603 83.7686 10.0827 73.4846 11.59 71.9365C12.9897 70.499 12.9897 66.0758 11.4823 65.1911C9.86733 64.0853 10.5133 63.0901 16.8657 57.6717C23.9717 51.7003 25.9097 51.9215 27.417 58.888ZM121.518 64.9699C120.01 66.5181 120.01 70.499 121.41 71.9365C122.917 73.4846 111.397 83.7686 108.813 83.2157C103.645 82.2205 103.214 54.4648 108.382 53.2484C110.859 52.6955 122.917 63.5324 121.518 64.9699ZM9.975 68.5085C9.975 71.273 9.54433 71.8259 7.391 71.8259C4.37633 71.8259 2.33067 69.0614 3.29967 66.4075C3.838 65.0805 5.02233 64.6382 6.96033 64.8594C9.54433 65.1911 9.975 65.744 9.975 68.5085ZM129.485 66.8498C130.885 71.3836 124.855 74.5904 122.594 70.499C121.195 67.7345 123.133 64.6382 126.255 64.6382C127.87 64.6382 129.054 65.4123 129.485 66.8498ZM34.6307 80.1194C36.2457 84.3215 37.3223 88.3024 36.9993 88.8553C36.138 90.2928 37.43 93.3891 38.9373 93.3891C40.1217 93.3891 60.7937 102.678 61.7627 103.673C62.0857 103.894 58.9633 104.447 55.0873 104.889C50.4577 105.332 47.443 105.221 46.6893 104.447C46.151 103.894 44.7513 103.341 43.6747 103.341C41.0907 103.341 28.4937 89.5188 28.1707 86.4225C27.8477 83.3263 30.001 72.3788 30.97 72.3788C31.4007 72.3788 33.0157 75.8068 34.6307 80.1194ZM103.968 78.129C104.614 81.3358 105.045 85.0956 104.829 86.5331C104.506 89.2976 91.694 103.341 89.433 103.341C88.6793 103.341 87.172 103.894 86.0953 104.558C84.911 105.332 82.004 105.332 77.2667 104.668C71.022 103.784 70.5913 103.562 72.96 102.567C74.4673 101.904 79.097 99.8027 83.1883 97.8123C87.3873 95.8218 91.694 94.0525 92.7707 93.8314C95.4623 93.2785 96.7543 91.1775 96.0007 88.6341C95.3547 86.6437 100.63 72.3788 102.03 72.3788C102.461 72.3788 103.322 75.0327 103.968 78.129ZM21.28 86.9754C21.28 88.0812 22.0337 89.2976 22.895 89.6293C24.0793 90.1822 24.2947 91.5092 23.7563 95.3795C22.895 102.235 21.7107 104.668 20.634 101.683C20.2033 100.466 18.05 94.6054 15.6813 88.6341C13.4203 82.7734 11.59 77.5761 11.59 77.2444C11.59 76.9126 13.7433 78.5713 16.435 80.8935C19.1267 83.1051 21.28 85.8696 21.28 86.9754ZM116.242 90.4034C113.55 97.4805 110.966 103.01 110.536 102.567C110.213 102.014 109.567 99.0287 109.136 95.8218C108.598 91.1775 108.705 89.9611 110.105 89.4082C110.966 89.0764 111.72 87.8601 111.72 86.7543C111.72 85.0956 120.226 76.3597 121.087 77.1338C121.195 77.2444 119.041 83.2157 116.242 90.4034ZM94.278 90.4034C94.4933 91.5092 93.955 92.2833 92.986 92.2833C91.048 92.2833 89.8637 90.514 90.725 88.8553C91.694 87.3072 93.8473 88.1918 94.278 90.4034ZM33.9847 97.9229C37.6453 101.904 40.66 105.442 40.66 105.774C40.66 106.106 37.9683 106.659 34.7383 107.101C29.678 107.654 28.4937 107.433 26.6633 105.553C24.7253 103.562 24.51 102.457 25.156 96.5959C25.5867 92.9467 26.125 90.1822 26.5557 90.2928C26.8787 90.514 30.2163 93.942 33.9847 97.9229ZM107.736 97.2594C108.275 101.683 108.059 103.231 106.337 105.332C104.506 107.543 103.753 107.764 98.3693 107.101C95.0317 106.659 92.34 105.995 92.34 105.663C92.34 104.226 105.798 90.2928 106.444 90.9563C106.875 91.3986 107.413 94.1631 107.736 97.2594ZM26.125 108.87C26.125 112.188 22.3567 113.293 20.2033 110.529C19.1267 109.202 19.1267 108.539 20.2033 107.212C22.3567 104.447 26.125 105.553 26.125 108.87ZM64.3467 106.88C65.9617 107.986 66.9307 107.986 68.438 107.101C70.4837 105.774 84.0497 106.548 85.4493 108.096C85.88 108.428 82.7577 112.741 78.5587 117.606C74.3597 122.582 70.5913 126.01 70.2683 125.457C69.407 124.02 64.0237 124.02 62.7317 125.347C62.0857 126.01 58.8557 123.025 54.226 117.606C50.1347 112.741 47.12 108.539 47.443 108.096C47.8737 107.764 50.8883 107.101 54.3337 106.659C57.779 106.216 60.9013 105.774 61.4397 105.663C61.8703 105.663 63.1623 106.216 64.3467 106.88ZM112.258 108.87C112.258 110.861 111.612 111.745 109.782 111.967C107.198 112.409 105.691 109.976 106.767 107.101C107.09 106.106 108.382 105.553 109.782 105.774C111.612 105.995 112.258 106.88 112.258 108.87ZM40.8753 109.091C41.0907 109.755 42.275 110.418 43.567 110.529C45.505 110.64 59.1787 124.352 57.456 124.352C57.0253 124.352 51.965 122.029 46.2587 119.265C40.5523 116.5 33.9847 113.404 31.7237 112.519C26.771 110.418 27.6323 109.202 34.2 108.539C36.8917 108.317 39.368 108.096 39.7987 107.986C40.1217 107.875 40.66 108.317 40.8753 109.091ZM100.092 108.87C102.676 108.87 104.183 109.313 103.968 110.087C103.753 110.75 96.9697 114.399 88.787 118.27L74.0367 125.236L80.6043 117.938C84.265 113.846 87.818 110.64 88.5717 110.861C89.3253 110.971 90.5097 110.308 91.2633 109.423C92.017 108.428 93.4167 107.986 94.1703 108.317C95.0317 108.649 97.7233 108.87 100.092 108.87ZM69.084 127.227C71.1297 129.217 71.1297 129.438 69.73 132.203C69.084 133.309 67.6843 134.304 66.7153 134.304C62.5163 134.304 60.5783 128.775 64.1313 126.674C66.6077 125.126 67.146 125.126 69.084 127.227Z" fill="black"/>
<path d="M64.9927 41.0847C64.6697 41.4164 64.3467 44.7338 64.3467 48.4935C64.3467 54.5754 64.4543 54.9072 65.9617 52.9167C68.5457 49.3782 67.792 38.3202 64.9927 41.0847Z" fill="black"/>
<path d="M70.9143 48.0512C69.6223 50.5945 65.854 56.6764 62.624 61.6525L56.81 70.7201L62.301 71.0519C66.0693 71.273 67.5767 71.8259 67.2537 72.7106C66.9307 73.4846 64.6697 78.6819 62.1933 84.3215C59.717 90.0717 57.8867 94.8266 58.102 95.0478C58.425 95.3795 75.1133 68.8403 75.9747 66.6287C76.19 66.0758 73.929 65.9652 70.9143 66.4075C67.3613 66.8498 65.4233 66.7392 65.4233 65.9652C65.4233 65.4123 67.3613 60.5467 69.73 55.1283C74.3597 44.8444 75.1133 40.4211 70.9143 48.0512Z" fill="black"/>
<path d="M54.226 53.1379C50.5653 56.787 47.12 63.9748 47.12 68.5085C47.12 75.2539 54.7643 87.086 57.8867 85.0956C58.748 84.5427 57.779 82.884 55.0873 80.0089C51.8573 76.5809 50.996 74.8116 50.5653 70.3884C50.027 63.8642 52.3957 57.8928 56.9177 54.5754C58.6403 53.3591 60.04 51.8109 60.04 51.258C60.04 49.3782 57.3483 50.2628 54.226 53.1379Z" fill="black"/>
<path d="M74.6827 52.2532C74.3597 52.8061 75.544 54.5754 77.2667 56.2341C81.1427 59.8833 83.1883 66.4075 82.2193 71.7153C81.2503 76.9126 76.0823 82.9945 71.2373 84.5427C69.1917 85.3167 67.6843 86.4225 67.8997 87.086C69.084 90.7351 80.066 83.7686 83.0807 77.5761C85.3417 72.7106 85.6647 63.9747 83.7267 60.1044C82.1117 57.0082 77.2667 51.3686 76.0823 51.3686C75.6517 51.3686 75.0057 51.8109 74.6827 52.2532Z" fill="black"/>
</svg>
